<?xml version="1.0" encoding="UTF-8" standalone="no"?>
<!DOCTYPE svg PUBLIC "-//W3C//DTD SVG 1.1//EN" "http://www.w3.org/Graphics/SVG/1.1/DTD/svg11.dtd">
<svg width="100%" height="100%" viewBox="0 0 100 76" version="1.1" xmlns="http://www.w3.org/2000/svg" xmlns:xlink="http://www.w3.org/1999/xlink" xml:space="preserve" xmlns:serif="http://www.serif.com/" style="fill-rule:evenodd;clip-rule:evenodd;stroke-linejoin:round;stroke-miterlimit:2;">
    <g transform="matrix(0.73349,0.00033756,-0.00033756,0.73349,-3.92397,0.882591)">
        <g transform="matrix(61.426,0,0,61.426,13,72)">
            <path d="M0.41,-0.657C0.363,-0.521 0.317,-0.384 0.27,-0.247C0.223,-0.384 0.176,-0.521 0.129,-0.657C0.104,-0.731 -0.014,-0.7 0.012,-0.625C0.077,-0.434 0.143,-0.243 0.209,-0.052C0.21,-0.016 0.249,0.005 0.283,-0.001C0.284,-0.001 0.285,-0.001 0.286,-0.002C0.311,-0.007 0.332,-0.025 0.333,-0.052C0.398,-0.243 0.463,-0.434 0.528,-0.625C0.553,-0.7 0.435,-0.732 0.41,-0.657Z" style="fill:rgb(201,198,189);fill-rule:nonzero;"/>
        </g>
        <g transform="matrix(61.426,0,0,61.426,43.9587,72)">
            <path d="M0.666,-0.526C0.603,-0.633 0.488,-0.697 0.364,-0.699C0.292,-0.701 0.292,-0.589 0.364,-0.587C0.46,-0.586 0.549,-0.528 0.585,-0.439C0.622,-0.35 0.6,-0.247 0.533,-0.18C0.465,-0.112 0.362,-0.09 0.273,-0.127C0.184,-0.164 0.127,-0.253 0.125,-0.348C0.124,-0.42 0.012,-0.42 0.013,-0.348C0.017,-0.121 0.238,0.054 0.46,-0.011C0.677,-0.073 0.782,-0.332 0.666,-0.526Z" style="fill:rgb(201,198,189);fill-rule:nonzero;"/>
        </g>
        <g transform="matrix(61.426,0,0,61.426,89.2911,72)">
            <path d="M0.054,-0.643L0.054,-0.058C0.054,0.018 0.173,0.019 0.173,-0.058L0.173,-0.643C0.173,-0.72 0.054,-0.72 0.054,-0.643Z" style="fill:rgb(201,198,189);fill-rule:nonzero;"/>
        </g>
        <g transform="matrix(61.426,0,0,61.426,103.235,72)">
            <path d="M0.142,-0.699L0.074,-0.699C0.043,-0.699 0.014,-0.672 0.015,-0.64C0.016,-0.608 0.041,-0.581 0.074,-0.581L0.142,-0.581C0.269,-0.578 0.375,-0.477 0.375,-0.348C0.375,-0.22 0.269,-0.118 0.142,-0.116L0.074,-0.116C0.043,-0.116 0.014,-0.088 0.015,-0.056C0.016,-0.024 0.041,0.003 0.074,0.003L0.142,0.003C0.333,-0.001 0.494,-0.154 0.494,-0.348C0.493,-0.542 0.334,-0.696 0.142,-0.699Z" style="fill:rgb(201,198,189);fill-rule:nonzero;"/>
        </g>
    </g>
    <g transform="matrix(1,0.000460211,-0.000460211,1,-0.458415,-8.02323)">
        <path d="M95,12.75C95,10.68 93.32,9 91.25,9L9.715,9C7.645,9 5.965,10.68 5.965,12.75L5.965,20.25C5.965,22.32 7.645,24 9.715,24L91.25,24C93.32,24 95,22.32 95,20.25L95,12.75Z" style="fill:rgb(201,198,189);"/>
    </g>
    <g transform="matrix(1,0.000460211,-0.000460211,1,-0.485568,50.9768)">
        <path d="M95,12.75C95,10.68 93.32,9 91.25,9L9.715,9C7.645,9 5.965,10.68 5.965,12.75L5.965,20.25C5.965,22.32 7.645,24 9.715,24L91.25,24C93.32,24 95,22.32 95,20.25L95,12.75Z" style="fill:rgb(201,198,189);"/>
    </g>
</svg>
